Coordinates
version=1
nRows=8
nColumns=40
inDegrees=yes

Units are S.I. units (second, meters, Newtons, ...)
Angles are in degrees.

endheader
time	pelvis_tilt	pelvis_list	pelvis_rotation	pelvis_tx	pelvis_ty	pelvis_tz	hip_flexion_r	hip_adduction_r	hip_rotation_r	knee_angle_r	knee_angle_r_beta	ankle_angle_r	subtalar_angle_r	mtp_angle_r	hip_flexion_l	hip_adduction_l	hip_rotation_l	knee_angle_l	knee_angle_l_beta	ankle_angle_l	subtalar_angle_l	mtp_angle_l	lumbar_extension	lumbar_bending	lumbar_rotation	arm_flex_r	arm_add_r	arm_rot_r	elbow_flex_r	pro_sup_r	wrist_flex_r	wrist_dev_r	arm_flex_l	arm_add_l	arm_rot_l	elbow_flex_l	pro_sup_l	wrist_flex_l	wrist_dev_l
     36.00000000	     -6.97038186	     -4.38653136	     -0.93267163	      0.89730115	      0.92002608	      0.44973495	      9.30919100	     -4.21111617	     -8.85984413	     44.61211299	     44.61211299	      0.89701970	    -11.89896856	    -25.13008686	     23.63473469	     -2.98040743	     -0.96998712	     29.76023150	     29.76023150	     15.54390344	    -16.51162356	      9.53343655	     -9.82559369	      5.02345443	      4.64316577	     30.83346753	    -13.67600071	    -14.43979836	     33.66487143	     45.94081716	      0.00000000	      0.00000000	      5.72568167	    -14.10179888	     14.19354302	     34.28629574	     45.59467104	      0.00000000	      0.00000000
     36.02100000	     -6.72404467	     -4.40188918	     -1.05827298	      0.89691038	      0.91930434	      0.44656807	     12.33984498	     -4.60567271	     -8.33710913	     50.14613743	     50.14613743	     -2.77016478	    -16.36672001	    -23.72002833	     23.13455565	     -2.69804921	     -0.73552273	     30.18232119	     30.18232119	     16.14080830	    -17.04702178	      9.51461716	     -9.96780258	      5.41654888	      4.02278876	     27.04553442	    -13.30262963	    -14.40548177	     32.20953897	     45.97371681	      0.00000000	      0.00000000	      7.69507517	    -14.46501871	     13.79980799	     35.42821532	     45.67643015	      0.00000000	      0.00000000
     36.04200000	     -6.38331397	     -4.30952193	     -1.22979949	      0.89654782	      0.91850641	      0.44334389	     15.34158597	     -5.11694906	     -7.86121275	     55.68464822	     55.68464822	     -4.47673038	    -18.25427465	    -17.11382931	     22.53152049	     -2.32524510	     -0.64786294	     30.67302662	     30.67302662	     17.08795730	    -17.36219110	     10.13539426	    -10.25804150	      5.70921780	      3.75243184	     22.85471793	    -13.21048466	    -14.34394469	     31.04175156	     45.99911238	      0.00000000	      0.00000000	      9.92744812	    -14.77145698	     13.20263620	     36.81730249	     45.79742176	      0.00000000	      0.00000000
     36.06300000	     -6.10229516	     -4.22350413	     -1.40949462	      0.89604090	      0.91747416	      0.44034649	     18.48195636	     -5.38516923	     -7.18737940	     60.98735930	     60.98735930	     -3.98939508	    -18.81004632	     -5.30291759	     22.03031679	     -1.97759794	     -0.57329300	     31.22303820	     31.22303820	     18.02374993	    -17.66065818	     10.67450193	    -10.48930265	      6.02259347	      3.43067645	     18.72910756	    -13.03645876	    -14.33797366	     29.71929093	     46.03950024	      0.00000000	      0.00000000	     12.30246954	    -15.14465539	     12.65187707	     37.93443753	     45.91697398	      0.00000000	      0.00000000
     36.08400000	     -5.76046086	     -4.09263101	     -1.63012349	      0.89555921	      0.91657841	      0.43759727	     21.37810830	     -5.56946798	     -6.47949089	     65.43665060	     65.43665060	     -2.63597391	    -19.15669711	      6.71391144	     21.39951307	     -1.62363270	     -0.62294602	     31.66167471	     31.66167471	     18.88995476	    -17.86828017	     11.05334694	    -10.80262858	      6.30218486	      3.25806115	     14.68327089	    -12.89952798	    -14.53706194	     28.28270712	     46.10416448	      0.00000000	      0.00000000	     14.75955424	    -15.51332582	     12.08743849	     39.20246006	     46.03889398	      0.00000000	      0.00000000
     36.10500000	     -5.41706813	     -3.90763567	     -1.88918387	      0.89507847	      0.91584353	      0.43507950	     23.93509835	     -5.84514674	     -5.94822662	     68.77168449	     68.77168449	     -1.55337782	    -19.41060895	     14.51296598	     20.68988970	     -1.24063500	     -0.76501177	     31.94519743	     31.94519743	     19.64979805	    -18.03910627	     11.31027236	    -11.11538159	      6.53664610	      3.10819339	     10.82300897	    -12.73593141	    -14.91893642	     26.81197766	     46.18902538	      0.00000000	      0.00000000	     17.15533843	    -15.92547793	     11.46635729	     40.66591308	     46.16243991	      0.00000000	      0.00000000
     36.12600000	     -5.06972711	     -3.70158315	     -2.21890405	      0.89455298	      0.91542869	      0.43300034	     26.20686317	     -6.04745936	     -5.47421335	     71.07031886	     71.07031886	     -0.49906026	    -19.55313878	     18.81482855	     19.87693070	     -0.88624483	     -1.01031926	     32.02091416	     32.02091416	     20.27947301	    -18.13778715	     11.44031901	    -11.44229318	      6.72961699	      2.90112586	      7.24641885	    -12.51198607	    -15.41608370	     25.43295147	     46.28421641	      0.00000000	      0.00000000	     19.44578415	    -16.43552092	     10.73958729	     42.27781648	     46.29021846	      0.00000000	      0.00000000
     36.14700000	     -4.72230681	     -3.58208661	     -2.55436684	      0.89398652	      0.91552399	      0.43145923	     28.13560024	     -6.09771986	     -5.23189970	     72.23117175	     72.23117175	      0.18760150	    -19.63279371	     18.91038266	     18.96040894	     -0.66932583	     -1.28123295	     31.87658280	     31.87658280	     20.69641729	    -18.17479546	     11.36969483	    -11.70741559	      7.00181521	      1.97555760	      4.35210623	    -12.15887782	    -15.49416262	     24.22819552	     46.31888412	      0.00000000	      0.00000000	     21.49028412	    -17.53424993	     10.22806956	     43.17494953	     46.37229297	      0.00000000	      0.00000000
